<?xml version="1.0" encoding="utf-8"?>
<!-- Generator: Adobe Illustrator 16.0.0, SVG Export Plug-In . SVG Version: 6.00 Build 0)  -->
<!DOCTYPE svg PUBLIC "-//W3C//DTD SVG 1.1//EN" "http://www.w3.org/Graphics/SVG/1.1/DTD/svg11.dtd">
<svg version="1.1" id="icons" xmlns="http://www.w3.org/2000/svg" xmlns:xlink="http://www.w3.org/1999/xlink" x="0px" y="0px"
	 width="64px" height="64px" viewBox="0 0 64 64" enable-background="new 0 0 64 64" xml:space="preserve">
<g>
	<g>
		<path fill="#FFCE54" d="M6.51,32.995c2.48,0,4.5,2.02,4.5,4.5c0,2.489-2.02,4.5-4.5,4.5c-0.93,0-1.79-0.28-2.5-0.761
			c-1.21-0.8-2-2.18-2-3.739C2.01,35.015,4.02,32.995,6.51,32.995z"/>
	</g>
	<g>
		<path fill="#ED5565" d="M42,5.995c3.311,0,6,2.689,6,6c0,3.319-2.689,6-6,6s-6-2.681-6-6C36,8.685,38.689,5.995,42,5.995z"/>
	</g>
	<g>
		<path fill="#ED5565" d="M54,5.995c3.31,0,6,2.689,6,6c0,3.319-2.69,6-6,6c-3.32,0-6-2.681-6-6C48,8.685,50.68,5.995,54,5.995z"/>
	</g>
	<g>
		<path fill="#FFCE54" d="M25.51,32.995c2.48,0,4.5,2.02,4.5,4.5c0,1.569-0.8,2.949-2.01,3.75c-0.71,0.479-1.57,0.75-2.49,0.75
			c-2.49,0-4.5-2.011-4.5-4.5C21.01,35.015,23.02,32.995,25.51,32.995z"/>
	</g>
	<g>
		<path fill="#EDAB37" d="M29.01,11.995c0,1.89-0.88,3.579-2.25,4.68c-0.9-4.21-4.22-7.53-8.43-8.43c1.1-1.37,2.789-2.25,4.68-2.25
			C26.33,5.995,29.01,8.685,29.01,11.995z"/>
	</g>
	<g>
		<path fill="#FFCE54" d="M22,46.005c3.32,0,6,2.689,6,6c0,3.31-2.68,6-6,6c-3.28,0-5.939-2.641-5.99-5.9c0-0.03,0-0.07,0-0.1
			c0-0.03,0-0.07,0-0.101C16.061,48.645,18.72,46.005,22,46.005z"/>
	</g>
	<g>
		<path fill="#D3374E" d="M37.24,47.324c0.899,4.21,4.22,7.53,8.43,8.431v0.01c-1.1,1.37-2.78,2.24-4.68,2.24c-3.311,0-6-2.681-6-6
			C34.99,50.114,35.869,48.425,37.24,47.324z"/>
	</g>
	<g>
		<path fill="#EDAB37" d="M9.01,5.995c1.891,0,3.58,0.88,4.68,2.25c-4.209,0.899-7.529,4.22-8.43,8.43
			c-1.38-1.101-2.25-2.79-2.25-4.68C3.01,8.685,5.689,5.995,9.01,5.995z"/>
	</g>
	<g>
		<path fill="#ED5565" d="M38.5,22.005c2.48,0,4.5,2.02,4.5,4.5c0,2.49-2.02,4.5-4.5,4.5c-2.49,0-4.5-2.01-4.5-4.5
			c0-1.561,0.79-2.931,2-3.74C36.72,22.284,37.58,22.005,38.5,22.005z"/>
	</g>
	<g>
		<path fill="#FFCE54" d="M16.01,17.995c2.21,0,4,1.8,4,4c0,2.22-1.79,4-4,4s-4-1.78-4-4C12.01,19.795,13.8,17.995,16.01,17.995z"/>
	</g>
	<g>
		<path fill="#FFCE54" d="M16.01,51.904C16,51.935,16,51.975,16,52.005c0,0.029,0,0.069,0.01,0.1c-0.061,3.26-2.72,5.9-6,5.9
			c-3.32,0-6-2.69-6-6c0-3.311,2.68-6,6-6C13.29,46.005,15.949,48.645,16.01,51.904z"/>
	</g>
	<g>
		<circle fill="#ED5565" cx="48" cy="42.005" r="4"/>
	</g>
	<g>
		<path fill="#EDAB37" d="M8.23,26.774c1.989,1.99,4.739,3.221,7.779,3.221s5.79-1.23,7.78-3.221l0.22,0.221c3.32,0,6,2.689,6,6.01
			H30l0.01,4.49c0-2.48-2.02-4.5-4.5-4.5c-2.49,0-4.5,2.02-4.5,4.5c0,2.489,2.01,4.5,4.5,4.5c0.92,0,1.78-0.271,2.49-0.75v10.76
			c0-3.311-2.68-6-6-6c-3.28,0-5.939,2.64-5.99,5.899c-0.061-3.26-2.72-5.899-6-5.899c-3.32,0-6,2.689-6,6V41.234
			c0.71,0.48,1.57,0.761,2.5,0.761c2.48,0,4.5-2.011,4.5-4.5c0-2.48-2.02-4.5-4.5-4.5c-2.49,0-4.5,2.02-4.5,4.5v-4.49H2
			c0-3.32,2.689-6.01,6.01-6.01L8.23,26.774z"/>
	</g>
	<g>
		<path fill="#D3374E" d="M58.75,47.324c1.37,1.101,2.25,2.79,2.25,4.681c0,3.319-2.69,6-6,6c-1.9,0-3.59-0.87-4.69-2.24
			C54.53,54.854,57.84,51.545,58.75,47.324z"/>
	</g>
	<g>
		<path fill="#DA4453" d="M58.99,45.005c0,0.8-0.08,1.569-0.24,2.319c-0.91,4.221-4.22,7.53-8.44,8.44
			c-0.75,0.16-1.52,0.24-2.319,0.24c-0.801,0-1.57-0.08-2.32-0.25c-4.21-0.9-7.53-4.221-8.43-8.431c-0.17-0.75-0.25-1.52-0.25-2.319
			c0-3.04,1.229-5.78,3.22-7.78c1.989-1.99,4.75-3.22,7.78-3.22c3.04,0,5.79,1.229,7.779,3.22
			C57.76,39.225,58.99,41.965,58.99,45.005z M52,42.005c0-2.21-1.79-4-4-4s-4,1.79-4,4s1.79,4,4,4S52,44.215,52,42.005z"/>
	</g>
	<g>
		<path fill="#D3374E" d="M55.77,37.225c-1.989-1.99-4.739-3.22-7.779-3.22c-3.03,0-5.791,1.229-7.78,3.22L40,37.005
			c-3.32,0-6.01-2.69-6.01-6.01H34l-0.01-4.49H34c0,2.49,2.01,4.5,4.5,4.5c2.48,0,4.5-2.01,4.5-4.5c0-2.48-2.02-4.5-4.5-4.5
			c-0.92,0-1.78,0.279-2.5,0.76v-10.77c0,3.319,2.689,6,6,6s6-2.681,6-6c0,3.319,2.68,6,6,6c3.31,0,6-2.681,6-6v10.77
			c-0.72-0.48-1.57-0.76-2.5-0.76c-2.49,0-4.5,2.02-4.5,4.5c0,2.49,2.01,4.5,4.5,4.5c2.479,0,4.5-2.01,4.5-4.5v4.49
			c0,3.319-2.68,6.01-6,6.01L55.77,37.225z"/>
	</g>
	<g>
		<path fill="#ED5565" d="M60,22.765c1.21,0.81,2,2.19,2,3.74c0,2.49-2.021,4.5-4.5,4.5c-2.49,0-4.5-2.01-4.5-4.5
			c0-2.48,2.01-4.5,4.5-4.5C58.43,22.005,59.28,22.284,60,22.765z"/>
	</g>
	<g>
		<path fill="#F6BB42" d="M26.76,16.675c0.17,0.75,0.25,1.52,0.25,2.32c0,3.039-1.23,5.789-3.22,7.779
			c-1.99,1.99-4.74,3.221-7.78,3.221s-5.79-1.23-7.779-3.221c-1.99-1.99-3.221-4.74-3.221-7.779c0-0.801,0.08-1.57,0.25-2.32
			c0.9-4.21,4.221-7.53,8.43-8.43c0.75-0.171,1.521-0.25,2.32-0.25c0.801,0,1.57,0.079,2.32,0.25
			C22.54,9.145,25.859,12.465,26.76,16.675z M20.01,21.995c0-2.2-1.79-4-4-4s-4,1.8-4,4c0,2.22,1.79,4,4,4
			S20.01,24.215,20.01,21.995z"/>
	</g>
</g>
<g>
	<g>
		<g>
			<path d="M16.008,30.996c-6.617,0-12-5.383-12-12s5.383-12,12-12s12,5.383,12,12S22.625,30.996,16.008,30.996z M16.008,8.996
				c-5.514,0-10,4.486-10,10s4.486,10,10,10s10-4.486,10-10S21.521,8.996,16.008,8.996z"/>
		</g>
		<g>
			<path d="M16.007,26.998c-2.757,0-5-2.243-5-5s2.243-5,5-5s5,2.243,5,5S18.764,26.998,16.007,26.998z M16.007,18.998
				c-1.654,0-3,1.346-3,3s1.346,3,3,3s3-1.346,3-3S17.661,18.998,16.007,18.998z"/>
		</g>
		<g>
			<path d="M26.764,17.676c-0.293,0-0.583-0.128-0.781-0.374c-0.346-0.431-0.276-1.061,0.154-1.406
				c1.19-0.955,1.873-2.377,1.873-3.901c0-2.757-2.243-5-5-5c-1.524,0-2.946,0.683-3.902,1.872c-0.345,0.431-0.974,0.5-1.405,0.153
				c-0.431-0.346-0.5-0.975-0.153-1.405c1.337-1.665,3.327-2.62,5.461-2.62c3.859,0,7,3.141,7,7c0,2.134-0.955,4.125-2.621,5.462
				C27.204,17.604,26.982,17.676,26.764,17.676z"/>
		</g>
		<g>
			<path d="M5.252,17.676c-0.22,0-0.44-0.072-0.625-0.22c-1.666-1.337-2.621-3.328-2.621-5.462c0-3.859,3.141-7,7-7
				c2.134,0,4.124,0.955,5.461,2.62c0.347,0.431,0.277,1.06-0.153,1.405c-0.432,0.346-1.061,0.276-1.405-0.153
				c-0.956-1.189-2.378-1.872-3.902-1.872c-2.757,0-5,2.243-5,5c0,1.524,0.683,2.946,1.873,3.901c0.431,0.346,0.5,0.976,0.154,1.406
				C5.835,17.548,5.545,17.676,5.252,17.676z"/>
		</g>
		<g>
			<path d="M6.504,42.996c-3.032,0-5.5-2.468-5.5-5.5s2.468-5.5,5.5-5.5c3.033,0,5.501,2.468,5.501,5.5S9.537,42.996,6.504,42.996z
				 M6.504,33.996c-1.93,0-3.5,1.57-3.5,3.5s1.57,3.5,3.5,3.5c1.931,0,3.501-1.57,3.501-3.5S8.435,33.996,6.504,33.996z"/>
		</g>
		<g>
			<path d="M30.011,34.002c-0.553,0-1-0.447-1-1c0-2.76-2.246-5.006-5.007-5.006c-0.553,0-1-0.447-1-1s0.447-1,1-1
				c3.863,0,7.007,3.143,7.007,7.006C31.011,33.555,30.563,34.002,30.011,34.002z"/>
		</g>
		<g>
			<path d="M25.504,42.996c-3.033,0-5.501-2.468-5.501-5.5s2.468-5.5,5.501-5.5c3.032,0,5.5,2.468,5.5,5.5
				S28.536,42.996,25.504,42.996z M25.504,33.996c-1.931,0-3.501,1.57-3.501,3.5s1.57,3.5,3.501,3.5c1.93,0,3.5-1.57,3.5-3.5
				S27.434,33.996,25.504,33.996z"/>
		</g>
		<g>
			<path d="M22.002,59.004c-3.86,0-7.001-3.141-7.001-7s3.141-7,7.001-7c3.859,0,7,3.141,7,7S25.861,59.004,22.002,59.004z
				 M22.002,47.004c-2.758,0-5.001,2.243-5.001,5s2.243,5,5.001,5c2.757,0,5-2.243,5-5S24.759,47.004,22.002,47.004z"/>
		</g>
		<g>
			<path d="M30.012,38.496c-0.552,0-0.999-0.446-1-0.998l-0.01-4.494c-0.001-0.552,0.445-1.001,0.998-1.002c0,0,0.001,0,0.002,0
				c0.552,0,0.999,0.446,1,0.998l0.01,4.494c0.001,0.552-0.445,1.001-0.998,1.002C30.014,38.496,30.013,38.496,30.012,38.496z"/>
		</g>
		<g>
			<path d="M1.999,34.002c-0.553,0-1-0.447-1-1c0-3.863,3.144-7.006,7.007-7.006c0.553,0,1,0.447,1,1s-0.447,1-1,1
				c-2.761,0-5.007,2.246-5.007,5.006C2.999,33.555,2.552,34.002,1.999,34.002z"/>
		</g>
		<g>
			<path d="M2.006,38.496c-0.553,0-1-0.447-1-1v-4.494c0-0.553,0.447-1,1-1s1,0.447,1,1v4.494
				C3.006,38.049,2.559,38.496,2.006,38.496z"/>
		</g>
		<g>
			<path d="M16.007,19.996c-0.553,0-1-0.447-1-1v-0.998c0-0.553,0.447-1,1-1s1,0.447,1,1v0.998
				C17.007,19.549,16.56,19.996,16.007,19.996z"/>
		</g>
		<g>
			<path d="M20.035,15.996c-0.553,0-1.005-0.447-1.005-1s0.442-1,0.994-1h0.011c0.552,0,1,0.447,1,1S20.587,15.996,20.035,15.996z"
				/>
		</g>
		<g>
			<path d="M12.034,15.996c-0.553,0-1.005-0.447-1.005-1s0.442-1,0.994-1h0.011c0.552,0,1,0.447,1,1S12.586,15.996,12.034,15.996z"
				/>
		</g>
		<g>
			<path d="M28.002,53.004c-0.553,0-1-0.447-1-1V41.24c0-0.553,0.447-1,1-1s1,0.447,1,1v10.764
				C29.002,52.557,28.555,53.004,28.002,53.004z"/>
		</g>
		<g>
			<path d="M10.006,59.004c-3.859,0-7-3.141-7-7s3.141-7,7-7c3.86,0,7.001,3.141,7.001,7S13.866,59.004,10.006,59.004z
				 M10.006,47.004c-2.757,0-5,2.243-5,5s2.243,5,5,5c2.758,0,5.001-2.243,5.001-5S12.764,47.004,10.006,47.004z"/>
		</g>
		<g>
			<path d="M4.006,53.004c-0.553,0-1-0.447-1-1V41.236c0-0.553,0.447-1,1-1s1,0.447,1,1v10.768
				C5.006,52.557,4.559,53.004,4.006,53.004z"/>
		</g>
	</g>
	<g>
		<g>
			<path d="M47.992,57.004c-6.617,0-12-5.383-12-12s5.383-12,12-12s12,5.383,12,12S54.609,57.004,47.992,57.004z M47.992,35.004
				c-5.514,0-10,4.486-10,10s4.486,10,10,10s10-4.486,10-10S53.506,35.004,47.992,35.004z"/>
		</g>
		<g>
			<path d="M47.993,47.002c-2.757,0-5-2.243-5-5s2.243-5,5-5s5,2.243,5,5S50.75,47.002,47.993,47.002z M47.993,39.002
				c-1.654,0-3,1.346-3,3s1.346,3,3,3s3-1.346,3-3S49.647,39.002,47.993,39.002z"/>
		</g>
		<g>
			<path d="M40.99,59.006c-3.859,0-7-3.141-7-7c0-2.134,0.955-4.125,2.621-5.462c0.432-0.344,1.061-0.275,1.406,0.154
				c0.346,0.431,0.276,1.061-0.154,1.406c-1.19,0.955-1.873,2.377-1.873,3.901c0,2.757,2.243,5,5,5c1.524,0,2.946-0.683,3.902-1.872
				c0.346-0.431,0.975-0.5,1.405-0.153c0.431,0.346,0.5,0.975,0.153,1.405C45.114,58.051,43.124,59.006,40.99,59.006z"/>
		</g>
		<g>
			<path d="M54.994,59.006c-2.134,0-4.124-0.955-5.461-2.62c-0.347-0.431-0.277-1.06,0.153-1.405
				c0.431-0.348,1.061-0.278,1.405,0.153c0.956,1.189,2.378,1.872,3.902,1.872c2.757,0,5-2.243,5-5c0-1.524-0.683-2.946-1.873-3.901
				c-0.431-0.346-0.5-0.976-0.154-1.406c0.348-0.431,0.977-0.497,1.406-0.154c1.666,1.337,2.621,3.328,2.621,5.462
				C61.994,55.865,58.854,59.006,54.994,59.006z"/>
		</g>
		<g>
			<path d="M57.496,32.004c-3.033,0-5.501-2.468-5.501-5.5s2.468-5.5,5.501-5.5c3.032,0,5.5,2.468,5.5,5.5
				S60.528,32.004,57.496,32.004z M57.496,23.004c-1.931,0-3.501,1.57-3.501,3.5s1.57,3.5,3.501,3.5c1.93,0,3.5-1.57,3.5-3.5
				S59.426,23.004,57.496,23.004z"/>
		</g>
		<g>
			<path d="M39.996,38.004c-3.863,0-7.007-3.143-7.007-7.006c0-0.553,0.447-1,1-1s1,0.447,1,1c0,2.76,2.246,5.006,5.007,5.006
				c0.553,0,1,0.447,1,1S40.549,38.004,39.996,38.004z"/>
		</g>
		<g>
			<path d="M38.496,32.004c-3.032,0-5.5-2.468-5.5-5.5s2.468-5.5,5.5-5.5c3.033,0,5.501,2.468,5.501,5.5
				S41.529,32.004,38.496,32.004z M38.496,23.004c-1.93,0-3.5,1.57-3.5,3.5s1.57,3.5,3.5,3.5c1.931,0,3.501-1.57,3.501-3.5
				S40.427,23.004,38.496,23.004z"/>
		</g>
		<g>
			<path d="M41.998,18.996c-3.859,0-7-3.141-7-7s3.141-7,7-7c3.86,0,7.001,3.141,7.001,7S45.858,18.996,41.998,18.996z
				 M41.998,6.996c-2.757,0-5,2.243-5,5s2.243,5,5,5c2.758,0,5.001-2.243,5.001-5S44.756,6.996,41.998,6.996z"/>
		</g>
		<g>
			<path d="M33.998,31.998c-0.552,0-0.999-0.446-1-0.998l-0.01-4.494c-0.001-0.552,0.445-1.001,0.998-1.002c0,0,0.001,0,0.002,0
				c0.552,0,0.999,0.446,1,0.998l0.01,4.494c0.001,0.552-0.445,1.001-0.998,1.002C34,31.998,33.999,31.998,33.998,31.998z"/>
		</g>
		<g>
			<path d="M55.994,38.004c-0.553,0-1-0.447-1-1s0.447-1,1-1c2.761,0,5.007-2.246,5.007-5.006c0-0.553,0.447-1,1-1s1,0.447,1,1
				C63.001,34.861,59.857,38.004,55.994,38.004z"/>
		</g>
		<g>
			<path d="M61.994,31.998c-0.553,0-1-0.447-1-1v-4.494c0-0.553,0.447-1,1-1s1,0.447,1,1v4.494
				C62.994,31.551,62.547,31.998,61.994,31.998z"/>
		</g>
		<g>
			<path d="M47.993,47.002c-0.553,0-1-0.447-1-1v-0.998c0-0.553,0.447-1,1-1s1,0.447,1,1v0.998
				C48.993,46.555,48.546,47.002,47.993,47.002z"/>
		</g>
		<g>
			<path d="M44.025,50.004c-0.553,0-1.005-0.447-1.005-1s0.442-1,0.994-1h0.011c0.552,0,1,0.447,1,1S44.577,50.004,44.025,50.004z"
				/>
		</g>
		<g>
			<path d="M52.026,50.004c-0.553,0-1.005-0.447-1.005-1s0.442-1,0.994-1h0.011c0.552,0,1,0.447,1,1S52.578,50.004,52.026,50.004z"
				/>
		</g>
		<g>
			<path d="M35.998,23.76c-0.553,0-1-0.447-1-1V11.996c0-0.553,0.447-1,1-1s1,0.447,1,1V22.76
				C36.998,23.313,36.551,23.76,35.998,23.76z"/>
		</g>
		<g>
			<path d="M53.994,18.996c-3.86,0-7.001-3.141-7.001-7s3.141-7,7.001-7c3.859,0,7,3.141,7,7S57.854,18.996,53.994,18.996z
				 M53.994,6.996c-2.758,0-5.001,2.243-5.001,5s2.243,5,5.001,5c2.757,0,5-2.243,5-5S56.751,6.996,53.994,6.996z"/>
		</g>
		<g>
			<path d="M59.994,23.764c-0.553,0-1-0.447-1-1V11.996c0-0.553,0.447-1,1-1s1,0.447,1,1v10.768
				C60.994,23.316,60.547,23.764,59.994,23.764z"/>
		</g>
	</g>
</g>
</svg>
